<!DOCTYPE svg PUBLIC "-//W3C//DTD SVG 1.1//EN" "http://www.w3.org/Graphics/SVG/1.1/DTD/svg11.dtd">
<!-- Uploaded to: SVG Repo, www.svgrepo.com, Transformed by: SVG Repo Mixer Tools -->
<svg fill="#ffffff" width="800px" height="800px" viewBox="0 0 24 24" xmlns="http://www.w3.org/2000/svg" stroke="#ffffff">
<g id="SVGRepo_bgCarrier" stroke-width="0"/>
<g id="SVGRepo_tracerCarrier" stroke-linecap="round" stroke-linejoin="round"/>
<g id="SVGRepo_iconCarrier">
<path d="M3,3A1,1,0,0,0,2,4V16a1,1,0,0,0,1,1h9.649l4.726,3.781A1,1,0,0,0,19,20V17h2a1,1,0,0,0,1-1V4a1,1,0,0,0-1-1ZM20,15H18a1,1,0,0,0-1,1v1.919l-3.375-2.7A1,1,0,0,0,13,15H4V5H20Z"/>
</g>
</svg>